<svg xmlns="http://www.w3.org/2000/svg" width="347" height="200" fill="none" viewBox="0 0 347 200">
  <path fill="#EE0F0F" d="M23.062 197.217 0 0h50.1l9.542 141.948L124.453 0h56.461l14.712 142.346L255.268 0h50.1l-92.247 197.217h-52.882L143.936 49.702 75.944 197.217H23.062ZM314.78 200c-9.543 0-17.23-2.916-23.062-8.748-5.831-5.831-8.747-12.856-8.747-21.073 0-8.483 2.916-15.64 8.747-21.471 5.832-5.832 13.519-8.748 23.062-8.748 9.278 0 16.832 2.916 22.664 8.748 5.832 5.831 8.748 12.988 8.748 21.471 0 8.217-2.916 15.242-8.748 21.073-5.832 5.832-13.386 8.748-22.664 8.748Z"/>
</svg>
