<svg width="1150" height="450" viewBox="0 0 1150 450" fill="none" xmlns="http://www.w3.org/2000/svg">
<g clip-path="url(#clip0_403_3)">
<path fill-rule="evenodd" clip-rule="evenodd" d="M0 225C0 100.736 100.736 0 225 0H925C1049.26 0 1150 100.736 1150 225C1150 349.264 1049.26 450 925 450H225C100.736 450 0 349.264 0 225ZM425 72.9492L675 272.949V74.9648H725V376.98L475 176.98V374.965H425V72.9492ZM957.144 130.307C934.171 122.509 909.146 123.328 886.732 132.612C864.318 141.896 846.043 159.012 835.313 180.771C824.583 202.53 822.128 227.448 828.408 250.882C834.687 274.316 849.271 294.668 869.443 308.147C889.615 321.625 913.999 327.311 938.053 324.144C962.106 320.978 984.188 309.175 1000.18 290.934C1010.58 279.083 1017.94 265.039 1021.82 250H925V200H1075V225C1075 261.391 1061.77 296.541 1037.78 323.902C1013.78 351.262 980.659 368.966 944.579 373.716C908.499 378.466 871.923 369.938 841.665 349.72C811.406 329.502 789.53 298.974 780.111 263.823C770.692 228.671 774.374 191.295 790.469 158.657C806.565 126.018 833.976 100.344 867.598 86.4181C901.219 72.4918 938.756 71.2629 973.216 82.9605C1007.68 94.6581 1036.71 118.484 1054.9 150L1011.6 175C999.472 153.99 980.117 138.105 957.144 130.307ZM75 225C75 142.157 142.157 75 225 75C307.843 75 375 142.157 375 225C375 307.843 307.843 375 225 375C142.157 375 75 307.843 75 225ZM225 125C169.772 125 125 169.772 125 225C125 280.228 169.772 325 225 325C280.228 325 325 280.228 325 225C325 169.772 280.228 125 225 125Z" fill="white"/>
</g>
<defs>
<clipPath id="clip0_403_3">
<rect width="1150" height="450" fill="white"/>
</clipPath>
</defs>
</svg>
