<svg width="495" height="510" viewBox="0 0 495 510" fill="none" xmlns="http://www.w3.org/2000/svg">
<g clip-path="url(#clip0_274_19)">
<path d="M48.9957 91.988C63.2153 65.8238 86.1425 45.4605 113.802 34.4286L157.5 17L158.236 16.6158C187.655 1.26688 221.178 -4.37457 254 0.5V0.5L281.861 2.49009C300.517 3.82264 318.871 7.91908 336.323 14.6453V14.6453C350.72 20.1942 364.383 27.4865 377.006 36.3592L387.254 43.5625C413.569 62.0592 436.631 84.7953 455.501 110.844L464.779 123.651C470.247 131.199 474.971 139.259 478.885 147.719L480.808 151.876C485.904 162.89 489.232 174.638 490.669 186.688L491.315 192.103C493.718 212.251 490.115 232.66 480.957 250.767V250.767C475.694 261.172 468.621 270.558 460.069 278.485L457.909 280.487C441.19 295.983 419.48 304.989 396.701 305.879V305.879C377.981 306.61 359.459 301.821 343.44 292.107L335.907 287.539C326.137 281.615 314.995 278.331 303.574 278.009L302.653 277.983C291.425 277.667 280.319 280.379 270.5 285.834L269.249 286.528C259.304 292.053 251.21 300.388 245.978 310.491V310.491C241.722 318.71 239.5 327.831 239.5 337.087V339.729C239.5 349.465 241.57 359.09 245.572 367.965L249.198 376.004C257.881 395.258 271.938 411.595 289.681 423.054L296.152 427.233C305.666 433.378 316.026 438.104 326.903 441.262V441.262C364.985 452.318 406.075 443.264 435.983 417.226L473 385L454.017 408.845C439.403 427.202 422.434 443.554 403.549 457.479L402.596 458.181C389.231 468.037 374.935 476.564 359.912 483.641L358.906 484.115C334.466 495.628 308.311 503.076 281.472 506.165V506.165C262.224 508.381 242.782 508.336 223.543 506.032L213.124 504.784C183.969 501.293 155.734 492.336 129.897 478.385V478.385C106.146 465.559 84.7961 448.713 66.7968 428.596L62.5059 423.801C27.766 384.974 6.48972 335.969 1.84266 284.076L1.00542 274.727C0.336358 267.256 -0.968364 259.855 -2.89458 252.606L-13.6819 212.006C-21.9227 180.991 -9.26923 148.195 17.668 130.752V130.752C28.0571 124.024 36.5964 114.803 42.5066 103.928L48.9957 91.988Z" fill="#C5C5C5"/>
<path d="M0 217.5C1.94186 94.3307 102.343 -4.5 225.528 -4.5H267.995C391.123 -4.5 491.17 94.8748 492 218V218L490.634 236.846C489.887 247.164 486.95 257.203 482.019 266.297V266.297C472.436 283.974 455.971 296.902 436.525 302.02L425.025 305.046C415.068 307.666 404.766 308.738 394.483 308.224L393.394 308.17C384.499 307.725 375.694 306.175 367.182 303.556L361.777 301.893C352.292 298.974 343.179 294.958 334.625 289.926V289.926C320.669 281.717 308.405 270.926 298.487 258.128L280.444 234.847C271.495 223.3 261.658 212.469 251.024 202.453L212.959 166.601C192.056 146.913 166.142 133.352 138.05 127.4L132.074 126.134C125.376 124.715 118.549 124 111.702 124V124C77.1488 124 45.1333 142.144 27.3791 171.787L0 217.5V217.5Z" fill="white"/>
<path d="M145.811 277.458C149.364 250.006 166.439 226.162 191.284 213.957L194.648 212.305C203.761 207.828 213.78 205.5 223.933 205.5V205.5C242.754 205.5 260.692 213.485 273.287 227.47L321.5 281H293.494C279.424 281 265.943 286.648 256.075 296.678V296.678C246.414 306.497 241 319.72 241 333.494V339.712C241 352.32 244.522 364.677 251.168 375.39L260.148 389.866C269.592 405.088 282.381 417.957 297.544 427.495L298.938 428.372C303.306 431.12 307.885 433.515 312.634 435.536V435.536C323.455 440.14 335.021 442.743 346.772 443.218L354.534 443.532C370.395 444.173 386.25 442.105 401.416 437.417L406 436L404.915 436.759C389.149 447.796 371.233 455.383 352.335 459.026V459.026C343.798 460.672 335.123 461.5 326.429 461.5H304.247C284.587 461.5 265.1 457.84 246.78 450.707L245.292 450.127C227.267 443.108 210.768 432.674 196.7 419.397V419.397C181.404 404.96 169.311 387.471 161.204 368.063L151.51 344.856C144.297 327.591 141.764 308.729 144.166 290.173L145.811 277.458Z" fill="#A5A5A5"/>
</g>
<defs>
<clipPath id="clip0_274_19">
<rect y="0.5" width="495" height="509" rx="247.5" fill="white"/>
</clipPath>
</defs>
</svg>
